<?xml version="1.0" standalone="no"?>
<!DOCTYPE svg PUBLIC "-//W3C//DTD SVG 20010904//EN"
 "http://www.w3.org/TR/2001/REC-SVG-20010904/DTD/svg10.dtd">
<svg version="1.0" xmlns="http://www.w3.org/2000/svg"
 width="512.000000pt" height="512.000000pt" viewBox="0 0 512.000000 512.000000"
 preserveAspectRatio="xMidYMid meet">

<g transform="translate(0.000000,512.000000) scale(0.100000,-0.100000)"
fill="#000000" stroke="none">
<path d="M0 2560 l0 -2560 1004 0 1003 0 7 31 c3 17 6 66 6 109 0 108 8 140
33 140 20 0 20 -4 13 -140 l-6 -140 53 0 54 0 7 61 c3 34 6 111 6 170 0 108
21 290 28 236 2 -15 10 -27 18 -27 19 0 18 9 -7 49 -24 40 -21 45 17 31 l29
-10 -25 18 c-14 9 -34 28 -45 41 -29 35 -88 91 -95 91 -12 0 -22 -214 -10
-218 5 -2 10 -12 10 -21 0 -14 -6 -17 -27 -13 -44 8 -56 38 -27 66 9 10 11 16
4 16 -8 0 -10 31 -4 114 l7 113 -29 33 c-16 19 -69 74 -118 124 -49 50 -66 65
-38 33 60 -68 65 -85 20 -60 -18 10 -42 19 -53 20 -21 3 -32 5 -80 18 -36 9
-423 198 -515 252 -69 39 -217 182 -239 230 -7 15 -17 36 -22 45 -5 10 -9 25
-9 33 0 16 16 21 22 6 5 -15 128 -110 178 -139 25 -14 79 -45 120 -70 100 -60
230 -114 230 -97 0 13 -68 59 -122 83 -16 6 -28 17 -28 23 0 6 16 1 35 -11
l35 -22 -11 26 c-7 14 -16 26 -21 26 -4 0 -8 5 -8 11 0 6 -9 23 -19 37 -10 15
-19 30 -20 35 -1 4 -30 67 -66 139 -62 127 -76 168 -56 168 5 0 31 -33 57 -72
59 -91 73 -106 44 -48 -13 24 -26 58 -31 75 -7 28 -7 28 6 10 35 -50 44 -60
49 -55 3 3 -1 19 -9 34 -29 54 -15 40 40 -41 44 -66 58 -80 75 -76 11 3 20 12
20 20 0 8 -3 12 -7 10 -5 -3 -9 16 -10 42 -1 30 -14 75 -37 125 -20 43 -36 82
-36 87 0 5 -9 28 -21 50 -11 23 -18 44 -15 47 3 3 6 1 6 -5 0 -21 265 -408
379 -553 28 -36 33 -22 14 46 -27 101 -16 289 17 269 5 -3 35 -85 65 -183 31
-97 72 -211 91 -254 19 -42 38 -96 43 -121 6 -35 31 -74 116 -183 60 -76 120
-153 135 -170 48 -56 177 -267 213 -351 34 -77 78 -223 92 -305 5 -31 10 -38
29 -38 26 0 36 17 36 60 0 77 106 333 174 420 24 30 50 69 59 85 20 40 167
242 203 280 54 56 151 210 157 250 3 21 23 63 44 94 20 31 38 70 40 86 1 17
12 71 23 120 22 96 31 311 16 373 -8 32 -40 56 -59 45 -4 -2 -42 -7 -85 -9
l-77 -4 -29 36 c-28 36 -28 36 -5 29 21 -7 22 -6 11 8 -12 14 -8 15 40 11 41
-4 62 -1 91 14 20 11 37 16 37 11 0 -15 -44 -37 -90 -44 -36 -6 -41 -9 -25
-16 33 -13 90 -10 111 6 10 8 29 15 42 15 12 0 30 8 40 18 15 15 22 17 36 7
15 -11 14 -14 -4 -38 l-20 -25 52 -26 c29 -14 73 -37 98 -50 44 -24 167 -63
174 -55 15 18 147 221 160 248 22 42 14 81 -16 81 -26 0 -108 -66 -109 -88 0
-14 -2 -14 -6 -2 -3 8 -10 18 -15 21 -5 3 1 18 14 34 l22 28 -28 -7 c-16 -4
-41 -10 -57 -13 -16 -3 -29 -11 -29 -17 0 -24 -70 -94 -115 -116 -24 -12 -57
-20 -72 -18 l-28 4 25 11 c14 6 41 23 60 38 l35 27 -60 -4 c-44 -2 -60 0 -59
10 1 6 2 23 3 37 1 18 7 25 21 25 11 0 20 -4 20 -9 0 -15 59 -33 87 -27 21 6
25 4 17 -6 -5 -8 1 -2 13 12 29 31 29 38 1 42 -13 3 4 4 37 4 104 1 146 13
188 56 37 38 37 39 8 24 -16 -9 -32 -19 -35 -24 -2 -4 -33 -8 -68 -9 -58 -1
-59 0 -18 6 53 8 80 21 137 67 40 33 60 43 49 25 -3 -5 4 -11 16 -14 20 -6 20
-7 4 -32 l-17 -26 25 16 c13 9 32 28 41 42 12 18 19 22 25 14 5 -8 11 -3 19
16 7 15 30 42 51 58 42 33 65 75 86 157 l14 53 -5 -52 c-6 -61 -44 -170 -74
-211 -26 -37 -26 -42 -3 -42 17 0 160 119 175 147 21 36 47 153 47 208 0 95
-51 276 -69 247 -4 -7 -20 17 -38 58 -17 39 -30 70 -28 70 2 0 18 -20 34 -44
19 -28 29 -51 25 -63 -5 -14 -4 -15 4 -4 24 34 85 -147 85 -254 0 -52 2 -61 7
-35 l6 35 11 -35 c7 -23 7 -39 0 -48 -5 -7 -21 -45 -34 -84 -13 -39 -42 -96
-63 -126 -22 -30 -38 -57 -35 -60 9 -9 94 54 138 103 53 60 77 124 80 215 2
60 -2 75 -37 143 -26 52 -66 106 -125 169 -47 51 -96 109 -108 128 -26 44 -40
85 -24 76 14 -9 14 -5 1 30 -10 24 -4 21 43 -23 35 -34 69 -55 97 -63 62 -17
57 -8 -10 18 -38 15 -72 37 -94 63 -46 50 -46 70 -1 30 20 -17 55 -40 78 -52
42 -20 41 -20 -21 36 -69 63 -96 104 -142 214 -35 85 -35 105 0 31 23 -49 62
-97 48 -59 -19 50 -46 150 -52 189 l-7 45 20 -23 c28 -32 63 -130 55 -154 -4
-15 -3 -18 6 -13 22 13 4 101 -35 170 -28 51 -42 95 -65 212 -43 215 -100 351
-203 478 -55 67 -62 74 -47 47 6 -13 9 -26 7 -29 -8 -7 -39 27 -76 85 -18 28
-35 52 -37 52 -4 0 23 -65 56 -130 35 -71 73 -187 65 -199 -3 -6 -15 -7 -26
-3 -13 5 -39 48 -74 125 -30 64 -73 145 -96 179 -52 77 -202 234 -284 296 -61
46 -89 70 -70 59 6 -3 42 -6 80 -8 56 -2 77 -8 105 -29 46 -33 81 -52 86 -47
7 7 -27 32 -121 90 -49 30 -110 68 -133 84 -61 39 -61 39 -122 67 l-55 26 58
-6 c37 -3 57 -2 57 5 0 14 -38 38 -75 47 -24 6 -26 8 -11 14 32 11 -27 40
-123 60 -66 14 -78 19 -51 21 75 5 185 -13 279 -46 24 -8 46 -15 50 -15 13 1
-85 49 -102 50 -9 0 -16 5 -15 12 5 21 -63 57 -140 74 -53 12 -123 18 -224 18
-90 1 -138 4 -125 9 12 5 94 7 182 4 191 -5 237 -17 402 -107 61 -33 114 -60
118 -60 4 0 1 8 -6 18 -13 15 -12 16 3 3 10 -7 15 -17 13 -22 -3 -4 7 -15 22
-23 15 -8 58 -34 94 -58 37 -23 124 -72 194 -108 70 -36 136 -72 145 -81 9 -9
39 -31 66 -49 496 -339 833 -840 969 -1445 134 -592 71 -1096 -209 -1652 -35
-71 -96 -177 -135 -236 -40 -60 -79 -132 -89 -160 l-17 -52 52 -35 c28 -19 81
-64 118 -98 61 -58 71 -72 102 -155 23 -62 37 -122 43 -182 5 -56 20 -123 39
-175 18 -51 30 -103 30 -130 l-1 -45 -9 44 c-5 25 -19 74 -31 110 l-22 66 -13
-65 c-15 -73 -53 -193 -59 -187 -2 2 2 37 11 78 25 127 35 269 24 340 -6 35
-12 65 -14 67 -2 2 -10 -20 -19 -50 -8 -29 -22 -62 -30 -73 -14 -18 -15 -14
-9 50 6 64 5 69 -10 56 -15 -11 -18 -10 -27 14 -5 14 -10 38 -11 53 0 15 -4
35 -8 45 -6 17 -9 16 -20 -10 l-14 -28 -7 25 c-5 20 -12 24 -36 22 -23 -2 -45
10 -109 64 -43 36 -95 74 -115 84 -37 19 -90 84 -90 111 0 29 50 89 74 89 13
0 31 10 42 22 19 21 19 21 -1 14 -41 -16 -254 -67 -357 -85 -83 -15 -139 -34
-260 -86 -297 -129 -362 -156 -374 -151 -7 3 -24 -4 -37 -15 -14 -10 -29 -19
-33 -19 -4 0 -31 -11 -61 -25 -38 -18 -53 -31 -53 -45 0 -14 -7 -20 -24 -20
-13 0 -27 5 -29 10 -3 6 -4 5 -3 -2 1 -7 11 -15 22 -17 29 -5 34 -19 34 -101
1 -72 10 -137 24 -171 5 -11 1 -19 -9 -23 -9 -3 -14 -2 -11 3 3 4 -6 13 -19
19 -23 10 -25 18 -26 74 0 35 -4 83 -7 107 l-7 43 -50 -55 c-80 -88 -83 -93
-52 -88 7 1 11 -51 8 -134 -1 -27 5 -115 13 -195 9 -80 16 -148 16 -152 0 -5
25 -8 56 -8 55 0 56 0 50 27 -3 16 -8 72 -12 127 -5 78 -4 100 7 107 11 7 10
9 -4 9 -15 0 -18 7 -15 33 2 27 7 32 28 32 24 0 25 -3 26 -60 1 -65 12 -191
21 -242 l5 -33 229 0 228 0 12 43 c6 23 28 94 49 157 21 63 59 192 85 285 26
94 55 197 66 229 10 33 19 65 19 71 0 6 -25 19 -55 30 -30 10 -53 20 -51 22 8
9 118 -32 124 -45 2 -8 -16 -82 -41 -165 -26 -84 -60 -206 -77 -272 -17 -66
-46 -169 -65 -229 -19 -59 -32 -112 -29 -117 3 -5 333 -9 755 -9 l749 0 0
2560 0 2560 -2560 0 -2560 0 0 -2560z m2544 2438 l-19 -21 34 6 c18 4 50 4 72
1 l39 -6 -40 -29 c-22 -16 -49 -29 -59 -29 -11 0 -24 -8 -30 -17 -7 -14 -11
-10 -21 23 -14 46 0 94 26 94 15 0 15 -2 -2 -22z m-87 -43 c-1 -44 -2 -44
-172 -49 -148 -4 -193 -17 -291 -83 -32 -22 -69 -42 -80 -45 -39 -10 -261
-168 -339 -240 -71 -66 -175 -205 -175 -233 0 -7 -42 -58 -94 -114 -110 -117
-155 -197 -163 -288 -5 -58 14 -123 36 -123 11 0 -64 -327 -98 -425 -15 -44
-48 -127 -72 -183 -41 -97 -47 -106 -96 -139 -77 -51 -148 -133 -168 -194 -17
-51 -17 -145 1 -206 5 -17 2 -23 -10 -23 -9 0 -16 -5 -16 -11 0 -6 7 -9 14 -6
10 4 13 1 9 -9 -6 -15 -23 -19 -23 -5 0 5 -14 8 -30 7 -23 -2 -29 1 -25 12 4
12 3 13 -9 3 -12 -10 -19 -10 -36 2 -16 11 -18 16 -8 21 7 3 4 4 -7 1 -11 -2
-27 0 -35 5 -13 9 -13 10 0 11 10 0 8 3 -5 9 -11 4 -24 4 -29 -1 -12 -11 -29
-12 -23 -1 3 4 -1 13 -9 20 -8 7 -14 11 -14 8 0 -3 -15 1 -34 9 -18 8 -36 11
-40 8 -3 -4 -6 -1 -6 5 0 6 -7 9 -15 6 -12 -5 -15 -32 -15 -158 0 -402 110
-797 328 -1173 37 -65 52 -77 52 -44 0 24 37 71 56 71 21 0 26 21 16 67 -19
83 50 204 150 266 39 24 50 38 59 71 35 137 67 192 132 230 77 44 82 43 96
-17 18 -81 17 -128 -2 -139 -10 -5 -17 -19 -18 -31 -1 -19 -2 -18 -14 8 -8 17
-17 49 -21 73 -8 51 -23 44 -34 -15 l-7 -38 -9 55 -9 55 -27 -55 c-15 -30 -35
-91 -43 -135 -9 -44 -21 -88 -26 -97 -5 -10 -9 -29 -9 -42 0 -28 -30 -95 -43
-96 -4 0 -12 12 -18 28 -9 20 -8 37 3 68 l15 41 -34 -20 c-45 -26 -83 -77 -83
-112 0 -50 22 -159 42 -205 11 -25 36 -63 56 -84 l37 -39 -32 22 c-18 12 -35
26 -38 31 -12 19 -64 50 -69 41 -4 -5 7 -18 24 -27 16 -10 30 -21 30 -24 0 -3
-24 -4 -52 -2 -40 2 -61 -2 -86 -18 -18 -11 -30 -25 -27 -30 3 -5 -5 -16 -18
-24 -32 -22 -61 -106 -53 -159 l6 -42 -16 29 c-9 16 -19 56 -22 89 -4 49 -12
70 -39 105 -159 208 -322 635 -390 1019 -22 124 -25 583 -4 708 40 248 108
461 221 690 130 265 277 464 497 675 297 284 681 499 1061 594 147 37 255 57
351 66 47 4 87 8 88 9 0 0 1 -15 0 -34z m576 9 c37 -9 66 -18 64 -20 -1 -2
-34 1 -72 7 -71 10 -215 0 -284 -21 l-33 -9 18 21 c35 38 73 49 159 44 45 -3
111 -12 148 -22z m242 -34 c3 -6 -1 -7 -9 -4 -18 7 -21 14 -7 14 6 0 13 -4 16
-10z m-1540 -302 c-37 -27 -147 -137 -244 -246 -76 -86 -100 -100 -60 -36 59
97 185 219 290 283 44 27 52 26 14 -1z m2455 12 c0 -5 -2 -10 -4 -10 -3 0 -8
5 -11 10 -3 6 -1 10 4 10 6 0 11 -4 11 -10z m-756 -293 c28 -31 72 -90 98
-129 52 -79 174 -318 183 -358 3 -14 -8 3 -24 37 -36 76 -111 191 -129 198
-14 5 -3 -16 66 -125 56 -88 106 -257 126 -420 8 -66 -8 -24 -38 106 -14 60
-37 139 -52 175 -28 70 -121 215 -138 216 -6 0 -19 4 -29 8 -15 6 -16 4 -7
-20 14 -37 12 -45 -5 -15 -8 14 -14 19 -15 12 0 -27 -27 -4 -59 53 -18 33 -37
62 -41 65 -4 3 -14 21 -23 40 -8 19 -39 69 -69 111 -30 42 -59 82 -63 90 -10
16 89 -68 149 -127 21 -20 34 -28 28 -17 -6 11 -40 47 -77 81 -36 34 -58 59
-50 56 10 -4 15 0 15 10 0 15 3 15 29 1 44 -22 35 5 -19 60 -24 25 -40 45 -36
45 5 0 2 8 -5 18 -30 37 137 -116 185 -171z m-108 61 c4 -7 -9 1 -29 16 -20
16 -37 30 -37 33 0 7 58 -36 66 -49z m-75 -131 c45 -62 100 -152 124 -202 54
-111 107 -246 101 -252 -3 -3 -18 21 -34 53 -17 33 -40 65 -52 72 -22 13 -22
13 -17 -14 5 -26 4 -27 -8 -11 -16 22 -29 6 -21 -26 3 -12 -3 -4 -14 18 -11
22 -18 30 -16 18 6 -33 -12 -39 -26 -9 -14 32 -38 35 -31 4 4 -19 3 -20 -7 -8
-9 12 -10 10 -6 -12 8 -35 -2 -35 -31 -1 -13 14 -23 21 -23 14 0 -7 -4 -10 -9
-6 -5 3 -11 -3 -13 -12 -3 -14 -7 -12 -21 12 l-18 30 6 -31 c3 -16 2 -41 -4
-55 -8 -21 -10 -22 -16 -7 -4 10 -11 16 -16 13 -9 -6 -33 36 -56 99 -23 65
-62 250 -54 258 4 4 24 -20 45 -55 21 -34 36 -55 33 -47 -2 8 -8 26 -12 39 -5
17 -4 21 5 16 6 -4 0 17 -15 46 -21 43 -22 49 -6 29 19 -23 21 -24 22 -5 1 11
1 29 0 40 -2 20 -2 20 13 0 9 -12 15 -15 16 -7 0 7 5 10 12 6 7 -5 9 -1 6 12
-3 11 1 25 9 32 10 10 11 18 1 35 -10 19 -9 20 4 9 12 -10 17 -10 27 1 6 8 7
18 3 22 -4 5 -1 5 5 1 7 -4 49 -57 94 -119z m1061 -42 c0 -5 -5 -11 -11 -13
-6 -2 -11 4 -11 13 0 9 5 15 11 13 6 -2 11 -8 11 -13z m-1332 -135 c25 -80 31
-122 34 -212 2 -62 7 -167 11 -233 8 -134 -3 -244 -35 -341 -21 -61 -77 -140
-102 -142 -7 0 -23 -4 -35 -7 -19 -6 -21 -4 -16 17 4 12 26 52 49 88 23 36 53
97 67 136 34 95 62 269 52 320 l-8 39 -7 -33 c-4 -18 -11 -36 -15 -40 -4 -4
-5 4 -2 18 3 14 7 54 10 90 2 36 2 54 0 40 -5 -26 -32 -71 -34 -55 -1 6 -7
-10 -15 -35 -13 -43 -13 -41 -8 57 3 58 1 104 -5 107 -12 8 -21 -17 -22 -67
-2 -60 -12 -100 -26 -105 -9 -2 -13 11 -13 50 l0 53 -18 -35 c-9 -19 -24 -36
-33 -38 -14 -3 -16 9 -13 95 4 96 4 97 -10 53 -8 -25 -17 -63 -21 -84 -5 -29
-9 -36 -16 -25 -5 8 -9 23 -9 35 0 35 -44 24 -50 -12 l-6 -29 -8 25 -8 25 -8
-25 c-6 -19 -9 -12 -10 35 -2 51 -4 55 -9 25 l-7 -35 -7 40 c-17 96 -3 224 17
153 3 -13 9 -19 13 -13 5 6 15 10 23 10 8 0 16 11 18 24 3 18 8 22 27 18 20
-3 25 1 28 22 3 18 5 14 6 -14 1 -30 4 -36 11 -25 9 13 10 13 11 0 0 -8 5 -4
9 10 6 19 9 9 11 -40 2 -65 4 -57 15 58 5 57 7 61 20 45 13 -17 13 -17 14 6 0
20 2 21 15 11 10 -9 15 -9 15 -1 0 6 5 11 10 11 6 0 10 -9 10 -20 0 -11 4 -20
9 -20 4 0 6 11 4 24 -5 24 15 58 29 50 4 -3 21 -49 38 -104z m1850 100 c39
-21 43 -47 15 -85 -27 -35 -85 -62 -106 -49 -22 13 -3 87 31 117 34 31 34 31
60 17z m-3567 -142 c-19 -45 -43 -119 -52 -164 -9 -46 -20 -86 -24 -90 -13
-14 -29 52 -24 102 6 61 44 140 94 194 19 22 37 40 38 40 2 0 -12 -37 -32 -82z
m2504 -312 c-2 -5 -9 12 -17 38 -9 34 -16 44 -22 34 -7 -9 -8 -8 -4 5 3 10 6
24 7 30 0 7 9 -13 20 -43 11 -30 18 -59 16 -64z m117 -35 c9 -7 15 -23 15 -35
-2 -21 -2 -21 -6 1 -5 28 -32 51 -41 36 -5 -8 -12 -8 -25 2 -16 11 -15 13 11
11 16 -1 37 -7 46 -15z m-2657 -133 c-2 -18 -4 -4 -4 32 0 36 2 50 4 33 2 -18
2 -48 0 -65z m1843 76 c0 -28 43 -105 71 -128 35 -30 75 -93 109 -175 48 -115
50 -108 -22 -114 -79 -7 -104 -11 -148 -25 -39 -12 -130 -25 -130 -19 0 2 13
30 29 63 37 76 58 172 67 307 4 59 11 107 15 107 5 0 9 -7 9 -16z m837 -86
c-2 -18 -4 -6 -4 27 0 33 2 48 4 33 2 -15 2 -42 0 -60z m-58 -130 c1 -10 -3
-18 -9 -18 -5 0 -10 11 -10 24 0 13 -2 39 -5 57 -4 33 -4 33 9 -6 8 -22 15
-48 15 -57z m-2718 -103 c-26 -95 -55 -156 -87 -186 l-26 -24 27 60 c15 33 44
103 64 157 41 109 53 106 22 -7z m2740 32 c-10 -9 -11 -8 -5 6 3 10 9 15 12
12 3 -3 0 -11 -7 -18z m67 -42 c-3 -3 -9 2 -12 12 -6 14 -5 15 5 6 7 -7 10
-15 7 -18z m-77 -2 c-5 -10 -9 -22 -9 -26 0 -5 -4 -12 -8 -15 -4 -4 -4 3 -1
16 3 13 0 22 -6 23 -9 0 14 14 31 18 1 1 -2 -7 -7 -16z m49 -3 c0 -5 -4 -10
-10 -10 -5 0 -10 5 -10 10 0 6 5 10 10 10 6 0 10 -4 10 -10z m-246 -45 l17
-30 -20 24 c-12 13 -21 28 -21 34 0 12 0 11 24 -28z m293 -29 c-2 -6 -14 -13
-28 -15 -24 -3 -24 -3 -5 18 12 13 16 25 10 34 -5 7 -1 4 9 -7 10 -10 16 -24
14 -30z m-31 -44 c5 8 19 17 31 20 20 5 22 0 33 -73 6 -44 9 -83 5 -88 -3 -5
1 -11 7 -14 7 -2 0 -8 -16 -12 -23 -6 -42 -2 -84 20 -30 16 -56 34 -59 42 -4
9 -18 2 -49 -23 l-44 -36 0 56 c0 31 3 56 8 56 4 0 19 -7 32 -16 15 -9 12 -4
-8 13 -36 31 -41 59 -13 68 11 3 22 12 25 20 3 8 16 15 29 15 14 0 30 7 37 16
12 13 16 9 35 -32 17 -37 24 -44 31 -32z m-601 -46 c26 -64 38 -126 24 -126
-5 0 -9 4 -9 10 0 5 -7 6 -17 3 -10 -4 -14 -2 -10 5 12 18 -100 35 -203 30
-107 -6 -168 -28 -216 -80 -29 -31 -21 -30 26 4 29 21 134 63 126 50 -3 -5
-24 -15 -46 -22 -47 -16 -117 -73 -143 -119 -16 -27 -16 -31 -2 -31 12 0 14
-4 5 -19 -12 -24 -13 -31 -1 -31 4 0 23 24 41 53 l33 52 9 -40 c11 -50 41 -82
89 -95 74 -20 133 27 146 115 5 43 25 60 36 33 4 -10 8 -10 15 1 8 12 14 8 29
-17 11 -18 23 -29 26 -25 4 3 7 -1 7 -11 0 -23 -43 -89 -70 -107 -22 -15 -22
-15 -1 -16 12 -1 21 1 21 5 0 4 14 16 30 26 45 26 76 60 72 79 -5 23 24 22 33
0 4 -10 10 -54 14 -98 5 -69 8 -80 24 -77 21 4 22 -7 0 -38 -53 -81 -146 -150
-202 -151 -29 0 -32 -2 -16 -9 50 -22 142 -7 198 32 15 11 27 15 27 10 0 -20
-92 -241 -123 -294 -51 -90 -167 -217 -249 -272 -13 -8 -19 -34 -25 -111 l-8
-99 -40 -23 c-57 -33 -133 -60 -189 -68 l-49 -8 22 39 c12 22 39 59 61 84 21
24 37 46 36 47 -2 2 -38 -17 -82 -41 -120 -68 -202 -81 -298 -47 -67 23 -149
78 -140 93 4 7 2 8 -5 4 -15 -9 -190 118 -291 212 -66 61 -199 227 -142 178
12 -10 24 -27 28 -38 4 -15 9 -17 20 -7 8 6 17 9 21 5 3 -3 1 -6 -5 -6 -7 0
-12 -4 -12 -10 0 -5 7 -10 15 -10 9 0 15 -6 13 -12 -3 -14 3 -18 28 -18 12 0
11 5 -7 19 -21 18 -23 22 -11 41 8 12 9 19 3 16 -5 -4 -12 -2 -16 4 -3 5 -2
10 3 10 14 0 21 48 15 102 -4 29 -10 45 -16 41 -6 -4 -8 0 -4 10 3 10 2 17 -3
17 -5 0 -9 17 -10 38 0 20 -1 51 -1 67 -2 59 6 98 22 108 9 6 14 17 11 25 -3
9 -1 13 5 9 5 -3 20 3 31 14 12 11 30 23 39 27 28 12 83 46 83 52 0 3 -37 4
-82 2 -46 -2 -80 -1 -76 3 4 5 -6 23 -22 42 -30 34 -38 67 -20 78 6 3 10 2 10
-4 0 -24 63 -81 96 -87 53 -10 117 18 140 61 l19 35 17 -22 c24 -31 22 -57 -4
-68 -18 -8 -10 -9 34 -7 63 4 68 0 64 -58 -1 -16 4 -37 11 -45 7 -9 14 -32 17
-53 2 -20 14 -50 25 -65 17 -25 19 -34 10 -63 -14 -47 -27 -149 -18 -149 4 0
10 -11 13 -25 4 -14 17 -32 30 -40 32 -21 88 -7 136 35 32 28 34 32 18 44 -10
7 -14 17 -10 21 4 4 -3 6 -15 3 -28 -7 -82 26 -58 36 13 4 14 10 5 26 -8 15
-8 35 -2 65 5 25 10 93 11 152 1 60 4 117 7 128 3 12 0 50 -6 85 -21 117 -21
118 14 140 33 20 121 110 143 145 10 17 11 16 4 -10 -19 -69 -81 -166 -128
-197 l-28 -18 28 0 c35 0 114 40 164 82 l38 32 -30 -32 -29 -32 29 3 c17 2 41
10 55 19 41 25 360 189 360 184 0 -2 19 2 43 10 23 7 64 12 90 11 l48 -2 24
-59z m-512 9 c-3 -9 -8 -14 -10 -11 -3 3 -2 9 2 15 9 16 15 13 8 -4z m314
-101 c-3 -3 -12 -4 -19 -1 -8 3 -5 6 6 6 11 1 17 -2 13 -5z m-2041 -51 c-4
-16 -18 -47 -31 -68 l-24 -40 -1 42 c0 30 7 50 26 73 30 35 39 34 30 -7z
m2893 -51 c0 -35 -3 -42 -9 -27 -12 28 -12 88 0 80 6 -3 10 -27 9 -53z m18
-19 c-2 -16 -4 -5 -4 22 0 28 2 40 4 28 2 -13 2 -35 0 -50z m-3020 -98 c-19
-30 -58 -113 -72 -150 l-7 -20 -8 20 c-13 30 -11 113 2 159 7 23 30 58 53 81
l40 40 5 -50 c5 -38 1 -57 -13 -80z m2181 62 c4 -22 -24 -74 -47 -87 -38 -20
-98 -4 -121 33 -15 25 -6 33 25 19 14 -7 33 -12 42 -12 22 0 53 29 53 50 0 22
44 20 48 -3z m839 -34 c-3 -10 -5 -4 -5 12 0 17 2 24 5 18 2 -7 2 -21 0 -30z
m-1688 -7 c12 -18 21 -40 21 -47 -1 -8 -8 0 -17 16 -8 17 -22 38 -31 48 -8 9
-10 17 -4 17 6 0 20 -15 31 -34z m1668 -3 c-3 -10 -5 -4 -5 12 0 17 2 24 5 18
2 -7 2 -21 0 -30z m-3149 -44 c-10 -6 -14 -18 -11 -36 4 -23 2 -25 -7 -13 -9
12 -10 9 -5 -14 6 -27 5 -28 -11 -15 -16 13 -16 12 -5 -10 7 -13 9 -21 3 -17
-11 7 -25 -21 -17 -34 3 -5 0 -12 -6 -15 -13 -9 -2 99 13 130 14 28 52 57 57
43 2 -6 -3 -15 -11 -19z m3460 -146 c22 -38 43 -79 47 -93 3 -14 -7 -2 -23 26
-16 29 -39 65 -50 82 -20 27 -28 52 -18 52 2 0 22 -30 44 -67z m-3468 -14 c0
-6 7 -8 16 -5 15 6 15 4 3 -10 -7 -9 -15 -12 -17 -6 -2 6 -10 8 -18 5 -10 -4
-12 0 -8 11 7 18 24 22 24 5z m2716 -10 c3 -6 -5 -23 -20 -37 l-26 -27 0 26
c0 38 30 63 46 38z m-2723 -34 c4 -8 2 -17 -2 -20 -5 -2 -11 4 -14 15 -6 23 8
27 16 5z m-121 -70 c-2 -14 1 -32 8 -40 8 -10 9 -15 2 -15 -17 0 -34 38 -27
60 9 29 23 24 17 -5z m2783 -16 c6 -23 4 -26 -24 -26 -32 0 -44 16 -13 18 10
0 12 3 5 6 -18 7 -16 23 3 23 9 0 12 5 8 13 -5 8 -4 9 4 2 6 -5 13 -22 17 -36z
m56 8 c-10 -9 -11 -8 -5 6 3 10 9 15 12 12 3 -3 0 -11 -7 -18z m-1093 -106
c-4 -19 -22 -18 -26 2 -2 7 4 14 13 14 9 0 15 -7 13 -16z m-1438 -381 c14 -11
20 -20 14 -20 -7 0 -22 9 -35 20 -31 25 -12 26 21 0z m340 -10 c0 -5 -4 -10
-10 -10 -5 0 -10 5 -10 10 0 6 5 10 10 10 6 0 10 -4 10 -10z m68 -3 c9 -10 3
-17 -24 -32 -30 -16 -37 -17 -44 -5 -6 10 -1 20 18 32 32 21 36 22 50 5z m685
-182 c-20 -25 -36 -35 -56 -35 -16 0 -65 -9 -109 -21 -44 -11 -81 -19 -82 -17
0 2 -7 13 -14 26 l-12 22 86 0 c81 0 87 1 112 29 20 21 37 29 65 30 l38 1 -28
-35z m-930 -321 c3 -17 10 -42 17 -55 l13 -24 -25 23 c-26 23 -48 81 -48 123
0 23 1 23 19 -6 11 -16 21 -44 24 -61z m1447 -299 c19 -22 8 -25 -12 -3 -10
10 -14 18 -9 18 5 0 14 -7 21 -15z m23 -103 c9 -10 19 -34 23 -53 l5 -34 -19
41 c-11 23 -28 47 -39 53 -15 8 -15 10 -2 11 9 0 23 -8 32 -18z m-66 -134 c-3
-8 -6 -5 -6 6 -1 11 2 17 5 13 3 -3 4 -12 1 -19z m36 -94 l36 -40 -30 4 c-19
3 -35 14 -44 31 -13 24 -14 25 -15 4 0 -20 -16 -40 -25 -31 -6 6 28 79 35 76
4 -2 23 -21 43 -44z m1062 -50 c24 -11 25 -13 5 -8 -14 4 -38 13 -55 20 -24
11 -25 13 -5 8 14 -4 39 -13 55 -20z m-1038 -46 c11 -13 23 -28 27 -35 7 -12
-18 -83 -29 -83 -3 0 -1 9 5 19 13 26 13 34 -2 25 -7 -4 -10 -4 -6 1 10 10
-17 61 -37 68 -8 4 -15 11 -15 17 0 18 36 11 57 -12z m-267 -103 c0 -8 -4 -15
-10 -15 -5 0 -7 7 -4 15 4 8 8 15 10 15 2 0 4 -7 4 -15z m-45 -22 c-17 -5 -15
-7 10 -17 29 -12 29 -13 7 -18 -12 -3 -20 -2 -17 3 3 4 -6 11 -20 15 -32 8
-25 19 12 21 18 0 21 -1 8 -4z m-2225 -33 c13 -24 2 -50 -11 -29 -9 15 -12 49
-4 49 2 0 9 -9 15 -20z m2568 3 c-10 -2 -26 -2 -35 0 -10 3 -2 5 17 5 19 0 27
-2 18 -5z m-1250 -135 c23 -68 53 -164 66 -214 14 -50 28 -99 31 -110 3 -10
-4 1 -16 26 -25 54 -123 341 -132 388 -14 70 11 26 51 -90z m972 55 c24 -32
35 -52 26 -44 -18 15 -80 101 -73 101 2 0 23 -26 47 -57z m237 11 c8 -13 13
-29 10 -36 -4 -8 -6 -6 -6 5 -1 9 -8 17 -16 17 -8 0 -19 8 -24 18 -15 28 17
24 36 -4z m-104 -81 c23 -24 27 -33 15 -33 -27 0 -58 49 -57 89 2 34 2 34 6 6
3 -16 19 -45 36 -62z m137 24 c0 -2 -10 -12 -22 -23 l-23 -19 19 23 c18 21 26
27 26 19z m-63 -94 c-3 -10 -5 -4 -5 12 0 17 2 24 5 18 2 -7 2 -21 0 -30z
m-507 -108 c0 -32 -2 -35 -31 -35 -24 0 -30 3 -25 16 3 9 6 24 6 35 0 14 7 19
25 19 22 0 25 -4 25 -35z m470 15 c0 -5 -5 -10 -11 -10 -5 0 -7 5 -4 10 3 6 8
10 11 10 2 0 4 -4 4 -10z m2217 -283 c-2 -23 -3 -2 -3 48 0 50 1 68 3 42 2
-26 2 -67 0 -90z m-1045 23 c-42 -26 -56 -26 -17 0 17 11 35 20 40 20 6 0 -5
-9 -23 -20z m33 -14 c-11 -8 -24 -12 -29 -8 -5 3 -7 -2 -3 -11 7 -18 -8 -33
-18 -18 -8 14 31 51 52 51 15 0 14 -2 -2 -14z m-68 -32 c-3 -3 -12 -4 -19 -1
-8 3 -5 6 6 6 11 1 17 -2 13 -5z"/>
<path d="M849 3083 c11 -22 47 -40 58 -29 4 3 0 6 -7 6 -8 0 -25 10 -38 23
l-25 22 12 -22z"/>
<path d="M807 1368 c-14 -13 -28 -36 -31 -51 -6 -24 -4 -28 11 -23 10 3 30 8
45 11 24 6 26 10 21 38 -8 46 -17 51 -46 25z"/>
<path d="M3916 3121 l-40 -17 47 -22 c44 -21 67 -27 67 -18 0 6 -30 76 -33 75
-1 0 -20 -8 -41 -18z"/>
<path d="M3865 3091 c7 -12 95 -53 105 -49 4 2 -19 15 -52 30 -32 15 -56 23
-53 19z"/>
<path d="M2846 2808 c3 -5 10 -6 15 -3 13 9 11 12 -6 12 -8 0 -12 -4 -9 -9z"/>
<path d="M3175 2760 c3 -5 8 -10 11 -10 2 0 4 5 4 10 0 6 -5 10 -11 10 -5 0
-7 -4 -4 -10z"/>
<path d="M3016 2738 c3 -4 9 -8 15 -8 5 0 9 4 9 8 0 5 -7 9 -15 9 -8 0 -12 -4
-9 -9z"/>
<path d="M2613 2403 c-24 -9 -13 -24 15 -21 15 2 26 8 25 13 -2 12 -23 16 -40
8z"/>
<path d="M2420 2186 c-129 -50 -140 -65 -74 -96 24 -12 44 -26 44 -31 0 -20
95 -51 155 -51 50 0 115 14 115 24 0 2 -37 1 -82 0 l-83 -4 -2 30 c-1 17 3 35
10 40 15 12 128 24 225 23 163 -1 20 44 -238 75 -19 2 -51 -2 -70 -10z"/>
<path d="M3230 4715 c0 -7 101 -57 106 -53 2 2 -21 16 -51 31 -30 15 -55 25
-55 22z"/>
<path d="M4670 2920 c-12 -8 -12 -10 -1 -10 8 0 12 -3 9 -6 -4 -3 -9 -5 -12
-5 -12 1 -64 -25 -89 -45 -27 -22 -27 -22 -11 -60 21 -50 15 -146 -12 -199
-15 -29 -40 -52 -90 -83 -68 -42 -69 -43 -84 -105 -20 -79 -66 -163 -107 -194
-36 -28 -130 -66 -142 -58 -8 4 -69 -12 -80 -21 -2 -2 7 -12 20 -23 30 -25 5
-29 -29 -5 -23 15 -25 15 -63 -22 -21 -22 -39 -45 -39 -51 0 -7 17 -24 38 -37
67 -42 101 -110 128 -252 2 -13 14 -24 29 -28 71 -18 135 -130 135 -237 0 -38
4 -51 20 -59 11 -6 34 -29 50 -51 l29 -41 34 54 c62 99 166 323 211 455 77
227 115 447 116 662 0 136 -27 404 -41 409 -5 2 -7 8 -3 13 7 11 3 11 -16 -1z"/>
<path d="M4411 2877 c13 -13 27 -22 30 -20 4 1 9 -7 12 -19 4 -16 3 -18 -6 -9
-15 15 -34 14 -34 -3 0 -8 5 -14 11 -13 6 1 10 -6 8 -15 -1 -9 2 -19 8 -23 5
-3 10 -15 10 -27 0 -17 -7 -13 -41 23 -23 24 -37 37 -33 29 6 -10 3 -9 -8 2
-16 18 -36 8 -23 -12 3 -5 1 -10 -6 -10 -6 0 -9 8 -6 19 2 10 0 25 -5 32 -8
11 -9 10 -5 -3 3 -9 -1 -24 -8 -35 -13 -16 -14 -15 -9 12 5 29 4 29 -10 10
-13 -17 -17 -18 -25 -5 -6 8 -13 12 -16 8 -4 -3 25 -31 64 -62 70 -56 96 -87
84 -100 -3 -3 -1 -6 5 -6 7 0 12 -5 12 -10 0 -7 -7 -7 -21 0 -27 15 -31 10
-19 -31 6 -18 10 -51 10 -72 l0 -38 33 17 c42 21 85 62 104 98 22 41 18 137
-7 185 -21 42 -76 94 -90 86 -5 -3 -11 -1 -15 5 -3 5 -11 10 -17 10 -6 0 0
-10 13 -23z m74 -47 c10 -11 14 -20 9 -20 -5 0 -15 9 -22 20 -7 11 -11 20 -9
20 2 0 12 -9 22 -20z m-110 -60 c3 -5 1 -10 -4 -10 -6 0 -11 5 -11 10 0 6 2
10 4 10 3 0 8 -4 11 -10z"/>
<path d="M4349 2691 c12 -17 30 -31 38 -31 14 0 13 3 -3 21 -10 11 -27 25 -38
31 -17 9 -17 7 3 -21z"/>
<path d="M3948 2107 c-26 -21 -37 -47 -20 -47 11 0 62 49 62 60 0 15 -13 11
-42 -13z"/>
<path d="M3545 1691 c18 -36 20 -82 3 -100 -11 -11 -10 -13 0 -7 7 4 28 31 47
59 39 58 43 51 -38 71 l-28 7 16 -30z"/>
<path d="M2048 793 c6 -2 18 -2 25 0 6 3 1 5 -13 5 -14 0 -19 -2 -12 -5z"/>
<path d="M3025 750 c-4 -6 3 -10 14 -10 25 0 27 6 6 13 -8 4 -17 2 -20 -3z"/>
<path d="M2621 54 c0 -11 3 -14 6 -6 3 7 2 16 -1 19 -3 4 -6 -2 -5 -13z"/>
</g>
</svg>
